<svg xmlns="http://www.w3.org/2000/svg" version="1.1" width="80px" height="80px"
     style="shape-rendering:geometricPrecision; text-rendering:geometricPrecision; image-rendering:optimizeQuality; fill-rule:evenodd; clip-rule:evenodd">
<g><path style="opacity:0.846" fill="#7d8f9f" d="M 63.5,20.5 C 62.5,20.5 61.5,20.5 60.5,20.5C 60.5,15.1667 60.5,9.83333 60.5,4.5C 46.5,4.5 32.5,4.5 18.5,4.5C 18.5,9.83333 18.5,15.1667 18.5,20.5C 17.5,20.5 16.5,20.5 15.5,20.5C 15.5,14.1667 15.5,7.83333 15.5,1.5C 31.5,1.5 47.5,1.5 63.5,1.5C 63.5,7.83333 63.5,14.1667 63.5,20.5 Z"/></g>
<g><path style="opacity:1" fill="#fbfbfb" d="M 60.5,20.5 C 56.1539,20.3343 51.8206,20.501 47.5,21C 46.6195,21.7083 45.9528,22.5416 45.5,23.5C 44.5386,25.2646 44.2053,27.2646 44.5,29.5C 47.1667,29.5 49.8333,29.5 52.5,29.5C 52.1412,31.371 51.1412,32.871 49.5,34C 42.8333,34.6667 36.1667,34.6667 29.5,34C 27.8588,32.871 26.8588,31.371 26.5,29.5C 29.1667,29.5 31.8333,29.5 34.5,29.5C 34.7947,27.2646 34.4614,25.2646 33.5,23.5C 33.0472,22.5416 32.3805,21.7083 31.5,21C 27.1794,20.501 22.8461,20.3343 18.5,20.5C 18.5,15.1667 18.5,9.83333 18.5,4.5C 32.5,4.5 46.5,4.5 60.5,4.5C 60.5,9.83333 60.5,15.1667 60.5,20.5 Z"/></g>
<g><path style="opacity:1" fill="#8294a4" d="M 26.5,12.5 C 35.1667,12.5 43.8333,12.5 52.5,12.5C 52.5,13.5 52.5,14.5 52.5,15.5C 43.8333,15.5 35.1667,15.5 26.5,15.5C 26.5,14.5 26.5,13.5 26.5,12.5 Z"/></g>
<g><path style="opacity:0.917" fill="#ba9c4c" d="M 15.5,20.5 C 16.5,20.5 17.5,20.5 18.5,20.5C 22.8461,20.3343 27.1794,20.501 31.5,21C 32.3805,21.7083 33.0472,22.5416 33.5,23.5C 33.5,25.1667 33.5,26.8333 33.5,28.5C 30.9407,28.1984 28.6074,28.5318 26.5,29.5C 26.8588,31.371 27.8588,32.871 29.5,34C 36.1667,34.6667 42.8333,34.6667 49.5,34C 51.1412,32.871 52.1412,31.371 52.5,29.5C 50.3926,28.5318 48.0593,28.1984 45.5,28.5C 45.5,26.8333 45.5,25.1667 45.5,23.5C 45.9528,22.5416 46.6195,21.7083 47.5,21C 51.8206,20.501 56.1539,20.3343 60.5,20.5C 61.5,20.5 62.5,20.5 63.5,20.5C 67.1667,20.5 70.8333,20.5 74.5,20.5C 74.5,22.1667 74.5,23.8333 74.5,25.5C 74.5,29.5 74.5,33.5 74.5,37.5C 74.9559,48.9355 74.4559,60.2688 73,71.5C 72.0975,72.7014 70.9308,73.5348 69.5,74C 49.5,74.6667 29.5,74.6667 9.5,74C 8.06919,73.5348 6.90252,72.7014 6,71.5C 4.54409,60.2688 4.04409,48.9355 4.5,37.5C 4.5,33.5 4.5,29.5 4.5,25.5C 4.5,23.8333 4.5,22.1667 4.5,20.5C 8.16667,20.5 11.8333,20.5 15.5,20.5 Z"/></g>
<g><path style="opacity:1" fill="#fdeca1" d="M 7.5,23.5 C 15.5,23.5 23.5,23.5 31.5,23.5C 31.5,24.5 31.5,25.5 31.5,26.5C 28.8333,26.5 26.1667,26.5 23.5,26.5C 24.2936,35.9638 29.4603,39.2971 39,36.5C 43.6122,36.6068 48.1122,36.1068 52.5,35C 54.5848,32.5806 55.5848,29.7472 55.5,26.5C 52.8333,26.5 50.1667,26.5 47.5,26.5C 47.5,25.5 47.5,24.5 47.5,23.5C 55.5,23.5 63.5,23.5 71.5,23.5C 71.6666,38.5037 71.4999,53.5037 71,68.5C 70.1667,69.3333 69.3333,70.1667 68.5,71C 49.1667,71.6667 29.8333,71.6667 10.5,71C 9.66667,70.1667 8.83333,69.3333 8,68.5C 7.50008,53.5037 7.33342,38.5037 7.5,23.5 Z"/></g>
<g><path style="opacity:0.889" fill="#788a9c" d="M -0.5,25.5 C 1.16667,25.5 2.83333,25.5 4.5,25.5C 4.5,29.5 4.5,33.5 4.5,37.5C 2.83333,37.5 1.16667,37.5 -0.5,37.5C -0.5,33.5 -0.5,29.5 -0.5,25.5 Z"/></g>
<g><path style="opacity:0.889" fill="#788a9c" d="M 74.5,25.5 C 76.1667,25.5 77.8333,25.5 79.5,25.5C 79.5,29.5 79.5,33.5 79.5,37.5C 77.8333,37.5 76.1667,37.5 74.5,37.5C 74.5,33.5 74.5,29.5 74.5,25.5 Z"/></g>
<g><path style="opacity:1" fill="#e2d5b3" d="M 33.5,23.5 C 34.4614,25.2646 34.7947,27.2646 34.5,29.5C 31.8333,29.5 29.1667,29.5 26.5,29.5C 28.6074,28.5318 30.9407,28.1984 33.5,28.5C 33.5,26.8333 33.5,25.1667 33.5,23.5 Z"/></g>
<g><path style="opacity:1" fill="#e2d5b3" d="M 45.5,23.5 C 45.5,25.1667 45.5,26.8333 45.5,28.5C 48.0593,28.1984 50.3926,28.5318 52.5,29.5C 49.8333,29.5 47.1667,29.5 44.5,29.5C 44.2053,27.2646 44.5386,25.2646 45.5,23.5 Z"/></g>
<g><path style="opacity:1" fill="#bd9e4c" d="M 16.5,42.5 C 20.1612,42.3501 21.1612,43.8501 19.5,47C 15.7071,47.4866 14.7071,45.9866 16.5,42.5 Z"/></g>
<g><path style="opacity:1" fill="#bd9e4c" d="M 27.5,42.5 C 31.1612,42.3501 32.1612,43.8501 30.5,47C 26.7071,47.4866 25.7071,45.9866 27.5,42.5 Z"/></g>
<g><path style="opacity:1" fill="#c4a756" d="M 37.5,42.5 C 41.1378,41.7366 42.6378,43.0699 42,46.5C 37.4155,48.4126 35.9155,47.0793 37.5,42.5 Z"/></g>
<g><path style="opacity:1" fill="#bd9e4c" d="M 48.5,42.5 C 52.1612,42.3501 53.1612,43.8501 51.5,47C 47.7071,47.4866 46.7071,45.9866 48.5,42.5 Z"/></g>
<g><path style="opacity:1" fill="#bd9e4c" d="M 59.5,42.5 C 63.1612,42.3501 64.1612,43.8501 62.5,47C 58.7071,47.4866 57.7071,45.9866 59.5,42.5 Z"/></g>
<g><path style="opacity:1" fill="#c4a756" d="M 21.5,50.5 C 25.1378,49.7366 26.6378,51.0699 26,54.5C 21.4155,56.4126 19.9155,55.0793 21.5,50.5 Z"/></g>
<g><path style="opacity:1" fill="#bd9e4c" d="M 32.5,50.5 C 36.1612,50.3501 37.1612,51.8501 35.5,55C 31.7071,55.4866 30.7071,53.9866 32.5,50.5 Z"/></g>
<g><path style="opacity:1" fill="#bd9e4c" d="M 43.5,50.5 C 47.1612,50.3501 48.1612,51.8501 46.5,55C 42.7071,55.4866 41.7071,53.9866 43.5,50.5 Z"/></g>
<g><path style="opacity:1" fill="#c4a756" d="M 53.5,50.5 C 57.1378,49.7366 58.6378,51.0699 58,54.5C 53.4155,56.4126 51.9155,55.0793 53.5,50.5 Z"/></g>
<g><path style="opacity:1" fill="#bd9e4c" d="M 16.5,58.5 C 20.1612,58.3501 21.1612,59.8501 19.5,63C 15.7071,63.4866 14.7071,61.9866 16.5,58.5 Z"/></g>
<g><path style="opacity:1" fill="#ba9b48" d="M 27.5,58.5 C 35.5069,58.3336 43.5069,58.5003 51.5,59C 52.8333,60.3333 52.8333,61.6667 51.5,63C 43.5,63.6667 35.5,63.6667 27.5,63C 26.2721,61.5098 26.2721,60.0098 27.5,58.5 Z"/></g>
<g><path style="opacity:1" fill="#bd9e4c" d="M 59.5,58.5 C 63.1612,58.3501 64.1612,59.8501 62.5,63C 58.7071,63.4866 57.7071,61.9866 59.5,58.5 Z"/></g>
</svg>
